<?xml version="1.0" encoding="UTF-8"?>
<svg id="a" data-name="Camada_4" xmlns="http://www.w3.org/2000/svg" viewBox="0 0 341.18 172.55">
  <defs>
    <style>
      .b {
        fill: #fff;
      }
    </style>
  </defs>
  <path class="b" d="M78.06,60.28s-13.4.19-13.24-15.43v-8.79h-24s0,10.94,0,10.94c0,0,0,32.97,37.24,33.68v-20.4Z"/>
  <path class="b" d="M78.06,80.68h15.23s13.4.28,13.24,15.9v8.79s24,0,24,0v-10.94s0-33.44-37.24-34.15h-15.23v20.4Z"/>
  <path class="b" d="M78.06,118.56h15.23s13.4-.28,13.24-15.9v-8.79s24,0,24,0v10.94s0,33.44-37.24,34.15h-15.23v-20.4Z"/>
  <rect class="b" x="119.5" y="152.15" width="22.06" height="20.4"/>
  <path class="b" d="M93.26,21.35h-15.23s-13.4.28-13.24,15.9v8.79h-24v-10.94s0-33.44,37.24-34.15h15.23v20.4Z"/>
  <rect class="b" x="93.26" y=".96" width="22.06" height="20.4"/>
  <rect class="b" x="145.69" y="41.56" width="26.02" height="45.23"/>
  <path class="b" d="M233.11,49.09v36.82h-23.56l-.44-34.87c.19-10.19-13.23-9.49-13.23-9.49v-23.76c37.21.65,37.23,31.23,37.23,31.3Z"/>
  <rect class="b" x="171.71" y="17.79" width="24.17" height="23.76"/>
  <rect class="b" x="145.69" y="17.79" width="26.19" height="23.76"/>
  <path class="b" d="M233.11,107.66v-36.82h-23.56l-.44,34.87c.19,10.19-13.23,9.49-13.23,9.49v23.76c37.21-.65,37.23-31.23,37.23-31.3Z"/>
  <rect class="b" x="171.71" y="115.2" width="24.17" height="23.76"/>
  <rect class="b" x="145.6" y="115.2" width="26.19" height="23.76"/>
</svg>